<svg id="Icon_material-lock" data-name="Icon material-lock" xmlns="http://www.w3.org/2000/svg" width="10.979" height="14.41" viewBox="0 0 10.979 14.41">
  <path id="Icon_material-lock-2" data-name="Icon material-lock" d="M15.607,6.3h-.686V4.931a3.431,3.431,0,0,0-6.862,0V6.3H7.372A1.376,1.376,0,0,0,6,7.676v6.862A1.376,1.376,0,0,0,7.372,15.91h8.235a1.376,1.376,0,0,0,1.372-1.372V7.676A1.376,1.376,0,0,0,15.607,6.3ZM11.49,12.479a1.372,1.372,0,1,1,1.372-1.372A1.376,1.376,0,0,1,11.49,12.479ZM13.617,6.3H9.362V4.931a2.127,2.127,0,0,1,4.254,0Z" transform="translate(-6 -1.5)" fill="#a9a8db"/>
</svg>
