<svg id="Icon_awesome-file-export" data-name="Icon awesome-file-export" xmlns="http://www.w3.org/2000/svg" width="14.356" height="12.762" viewBox="0 0 14.356 12.762">
  <path id="Icon_awesome-file-export-2" data-name="Icon awesome-file-export" d="M9.571,3.038A.6.6,0,0,0,9.4,2.617L6.957.174A.6.6,0,0,0,6.533,0H6.381V3.19h3.19Zm4.661,4.639-2.385-2.4a.4.4,0,0,0-.683.282V7.179h-1.6v1.6h1.6V10.4a.4.4,0,0,0,.683.282l2.385-2.405A.424.424,0,0,0,14.233,7.677Zm-9.447.7v-.8a.4.4,0,0,1,.4-.4H9.571V3.988H6.182a.6.6,0,0,1-.6-.6V0H.6A.6.6,0,0,0,0,.6V12.164a.6.6,0,0,0,.6.6H8.973a.6.6,0,0,0,.6-.6V8.774H5.185A.4.4,0,0,1,4.786,8.375Z" fill="#04041c"/>
</svg>
