<svg id="Icon_awesome-file-export" data-name="Icon awesome-file-export" xmlns="http://www.w3.org/2000/svg" width="21.291" height="18.927" viewBox="0 0 21.291 18.927">
  <path id="Icon_awesome-file-export-2" data-name="Icon awesome-file-export" d="M14.2,4.506a.884.884,0,0,0-.259-.625L10.318.259A.887.887,0,0,0,9.689,0H9.464V4.732H14.2Zm6.913,6.88L17.571,7.822a.593.593,0,0,0-1.013.418v2.407H14.192v2.366h2.366v2.41a.593.593,0,0,0,1.013.418l3.538-3.567A.629.629,0,0,0,21.108,11.386ZM7.1,12.421V11.238a.593.593,0,0,1,.591-.591H14.2V5.915H9.168a.89.89,0,0,1-.887-.887V0H.887A.885.885,0,0,0,0,.887V18.04a.885.885,0,0,0,.887.887H13.308a.885.885,0,0,0,.887-.887V13.012H7.689A.593.593,0,0,1,7.1,12.421Z" fill="#2f2f75"/>
</svg>
